<?xml version="1.0" encoding="UTF-8" standalone="no"?>
<svg
   width="187px"
   height="55px"
   viewBox="0 0 187 55"
   version="1.1"
   id="svg27"
   sodipodi:docname="proxeus_logo_gpl3.svg"
   inkscape:version="1.1.1 (3bf5ae0d25, 2021-09-20)"
   inkscape:export-filename="/home/oleg/Localdev/Proxeus/proxeus-core/docs/_media/proxeus_logo_gpl3.png"
   inkscape:export-xdpi="1117.0909"
   inkscape:export-ydpi="1117.0909"
   xmlns:inkscape="http://www.inkscape.org/namespaces/inkscape"
   xmlns:sodipodi="http://sodipodi.sourceforge.net/DTD/sodipodi-0.dtd"
   xmlns="http://www.w3.org/2000/svg"
   xmlns:svg="http://www.w3.org/2000/svg"
   xmlns:rdf="http://www.w3.org/1999/02/22-rdf-syntax-ns#"
   xmlns:cc="http://creativecommons.org/ns#"
   xmlns:dc="http://purl.org/dc/elements/1.1/">
  <sodipodi:namedview
     id="namedview29"
     pagecolor="#ffffff"
     bordercolor="#666666"
     borderopacity="1.0"
     inkscape:pageshadow="2"
     inkscape:pageopacity="0.0"
     inkscape:pagecheckerboard="0"
     showgrid="false"
     inkscape:zoom="6.657754"
     inkscape:cx="92.073092"
     inkscape:cy="26.510442"
     inkscape:window-width="2560"
     inkscape:window-height="1371"
     inkscape:window-x="0"
     inkscape:window-y="0"
     inkscape:window-maximized="1"
     inkscape:current-layer="svg27" />
  <!-- Generator: Sketch 47.1 (45422) - http://www.bohemiancoding.com/sketch -->
  <title
     id="title2">logo</title>
  <desc
     id="desc4">Created with Sketch.</desc>
  <defs
     id="defs6" />
  <g
     id="logo"
     style="fill:#800080;fill-rule:evenodd;stroke:none;stroke-width:1">
    <path
       d="m 70,18.187328 h 4.979723 c 3.452921,0 5.825336,2.15427 5.825336,5.292011 0,3.090909 -2.372415,5.292011 -5.825336,5.292011 h -2.254969 v 6.041322 H 70 Z m 4.862277,8.055096 c 1.996587,0 3.17105,-1.100551 3.17105,-2.763085 0,-1.662535 -1.174463,-2.763086 -3.17105,-2.763086 h -2.137523 v 5.526171 z m 15.502911,1.498623 h -1.573781 v 7.071625 H 86.066653 V 18.187328 h 5.40253 c 3.100582,0 5.308572,1.990358 5.308572,4.776859 0,2.15427 -1.315398,3.863637 -3.429431,4.519284 l 5.308572,7.329201 h -3.265007 z m 0.845613,-2.365014 c 1.879141,0 2.795222,-0.913223 2.795222,-2.318182 0,-1.428374 -0.916081,-2.365014 -2.795222,-2.365014 h -2.419394 v 4.683196 z M 101.59305,26.5 c 0,-4.800276 3.80526,-8.5 8.5266,-8.5 4.74484,0 8.52661,3.699724 8.52661,8.5 0,4.800276 -3.78177,8.5 -8.52661,8.5 -4.72134,0 -8.5266,-3.699724 -8.5266,-8.5 z m 14.28147,0 c 0,-3.325069 -2.46637,-5.924242 -5.75487,-5.924242 -3.28849,0 -5.75486,2.599173 -5.75486,5.924242 0,3.325069 2.46637,5.924242 5.75486,5.924242 3.2885,0 5.75487,-2.599173 5.75487,-5.924242 z m 11.72114,-0.11708 -5.73138,8.429752 h 3.17105 l 4.41598,-6.46281 4.41599,6.46281 h 3.12407 l -5.70789,-8.429752 5.37904,-8.195592 h -3.14756 l -4.08713,6.158402 -4.08714,-6.158402 h -3.14756 z m 14.51637,-8.195592 v 16.625344 h 9.88897 v -2.669421 h -7.16422 v -4.449036 h 5.75487 v -2.62259 h -5.75487 v -4.214876 h 7.16422 v -2.669421 z m 15.50291,10.162534 c 0,4.097796 2.79522,6.650138 6.71792,6.650138 3.92271,0 6.69444,-2.552342 6.69444,-6.650138 V 18.187328 h -2.72475 V 28.42011 c 0,2.575758 -1.59727,4.004132 -3.96969,4.004132 -2.37241,0 -3.99317,-1.428374 -3.99317,-4.004132 V 18.187328 h -2.72475 z m 18.46255,3.816805 C 177.13451,33.876033 179.17808,35 181.69143,35 184.90946,35 187,33.07989 187,30.269973 187,27.951791 185.44971,26.5 183.17125,25.516529 l -1.29191,-0.5854 c -1.66774,-0.702479 -2.41939,-1.475206 -2.41939,-2.552341 0,-1.147383 1.0805,-1.80303 2.20799,-1.80303 1.19795,0 1.94961,0.444903 2.81871,1.475206 l 1.87914,-1.943526 C 185.14435,18.655647 183.61755,18 181.69143,18 c -2.53684,0 -4.95624,1.732782 -4.95624,4.402204 0,2.15427 1.24493,3.746556 3.75828,4.847107 l 1.3154,0.561984 c 1.64425,0.725895 2.4194,1.45179 2.4194,2.692837 0,1.194215 -0.93957,1.92011 -2.56033,1.92011 -1.45634,0 -2.74825,-0.936639 -3.52339,-1.990358 z"
       id="PROXEUS"
       fill="#12318b"
       style="fill:#800080" />
  </g>
  <text
     xml:space="preserve"
     style="font-size:12.8273px;line-height:0px;font-family:Roboto;-inkscape-font-specification:'Roboto, Normal';letter-spacing:0px;word-spacing:0px;writing-mode:lr-tb;fill:#800080;fill-opacity:1;stroke:none;stroke-width:0.534475px;stroke-linecap:butt;stroke-linejoin:miter;stroke-opacity:1"
     x="68.4739"
     y="52.526989"
     id="text1222"><tspan
       sodipodi:role="line"
       id="tspan1220"
       x="68.4739"
       y="52.526989"
       style="stroke-width:0.534475px;fill:#800080">GPL-3.0</tspan></text>
  <g
     id="Proxeus-logo-blue"
     fill-rule="nonzero"
     fill="#062a85"
     style="fill:#800080;fill-opacity:1;fill-rule:evenodd;stroke:none;stroke-width:1"
     transform="matrix(0.92865514,0.5361593,-0.5361593,0.92865514,22.728347,-11.130277)">
    <g
       id="Group"
       style="fill:#800080;fill-opacity:1">
      <path
         d="m 24.929825,0 c 0.394005,0.07236842 0.82383,0.10855263 1.217836,0.25328947 0.429824,0.14473685 0.859649,0.28947369 1.253655,0.50657895 C 33.490497,4.305921 39.615497,7.8157895 45.66886,11.398026 c 2.041666,1.194079 3.080409,3.075658 3.116228,5.427632 0.03582,7.055921 0.03582,14.111842 0,21.131579 0,2.351973 -1.074562,4.233552 -3.08041,5.427631 -6.089181,3.582237 -12.178362,7.092106 -18.267544,10.674342 -0.931286,0.542764 -1.93421,0.723685 -3.008771,0.759869 0,-0.108553 -0.03582,-0.217105 -0.03582,-0.325658 0,-18.128289 0,-36.292763 0,-54.42105258 0,-0.03618421 0,-0.03618421 0,-0.07236842 0.179093,0 0.358187,0 0.537281,0 z"
         id="Shape"
         style="fill:#800080;fill-opacity:1" />
      <path
         d="m 0,16.174342 c 0.14327485,-0.506579 0.25073099,-1.013158 0.42982456,-1.483553 0.250731,-0.759868 0.78801174,-1.592105 1.25365494,-2.026315 0,9.842105 0,19.648026 0,29.5625 C 1.5760234,42.082237 1.4685672,41.973684 1.3969298,41.865132 0.71637427,40.960526 0.25073099,39.947368 0.10745614,38.825658 c 0,-0.07237 -0.03581871,-0.108553 -0.07163743,-0.180921 C 0,31.154605 0,23.664474 0,16.174342 Z"
         id="path10"
         style="fill:#800080;fill-opacity:1" />
      <path
         d="m 22.028509,54.421053 c -0.5731,-0.325658 -1.11038,-0.615132 -1.647661,-0.94079 -0.03582,-0.03618 -0.07164,-0.108553 -0.107456,-0.180921 0,-0.108553 0,-0.180921 0,-0.289474 0,-17.042763 0,-34.12171 0,-51.1644733 0,-0.3256579 0.07164,-0.5065789 0.394006,-0.6513158 0.429824,-0.21710522 0.859649,-0.47039469 1.361111,-0.75986837 0,18.01973647 0,35.96710547 0,53.98684247 z"
         id="path12"
         style="fill:#800080;fill-opacity:1" />
      <path
         d="m 17.945175,52.069079 c -0.53728,-0.325658 -1.074561,-0.615132 -1.576023,-0.904605 -0.07164,-0.03618 -0.107456,-0.180921 -0.143275,-0.289474 -0.03582,-0.07237 0,-0.144737 0,-0.217105 0,-15.486842 0,-30.973685 0,-46.4605266 0,-0.3256579 0.07164,-0.5065789 0.358187,-0.6513158 C 17.049708,3.3289474 17.479532,3.0394737 17.945175,2.75 c 0,16.463816 0,32.855263 0,49.319079 z"
         id="path14"
         style="fill:#800080;fill-opacity:1" />
      <path
         d="m 13.897661,5.1381579 c 0,14.8717101 0,29.6710521 0,44.5427631 -0.07164,-0.03618 -0.143275,-0.03618 -0.179094,-0.07237 -0.429824,-0.25329 -0.895468,-0.506579 -1.325292,-0.796053 -0.107456,-0.07237 -0.143275,-0.217105 -0.214912,-0.361842 -0.03582,-0.07237 0,-0.144737 0,-0.217105 0,-13.858553 0,-27.75329 0,-41.6118425 0,-0.3618421 0.107456,-0.5427631 0.429824,-0.7236842 0.394006,-0.2171053 0.823831,-0.5065789 1.289474,-0.7598684 z"
         id="path16"
         style="fill:#800080;fill-opacity:1" />
      <path
         d="M 9.7785088,47.328947 C 9.2054094,47.003289 8.7039474,46.713816 8.2024854,46.388158 8.130848,46.351974 8.0950292,46.243421 8.0592105,46.171053 c -0.035819,-0.07237 0,-0.144737 0,-0.217106 0,-12.338815 0,-24.677631 0,-37.016447 0,-0.2894737 0.071637,-0.4703947 0.3223685,-0.5789474 C 8.8472222,8.1052632 9.2770468,7.8519737 9.7785088,7.5625 c 0,13.243421 0,26.486842 0,39.766447 z"
         id="path18"
         style="fill:#800080;fill-opacity:1" />
      <path
         d="m 5.7309941,9.8782895 c 0,11.7236845 0,23.3749995 0,35.0624995 C 5.1578947,44.615132 4.620614,44.289474 4.0833333,44 4.0475143,43.96382 4.0116963,43.891447 3.9758772,43.819079 c 0,-0.07237 0,-0.180921 0,-0.25329 0,-10.74671 0,-21.493421 0,-32.240131 0,-0.289474 0.1074561,-0.470395 0.3581871,-0.615132 0.4656433,-0.253289 0.8954679,-0.542763 1.3969298,-0.8322365 z"
         id="path20"
         style="fill:#800080;fill-opacity:1" />
    </g>
  </g>
  <metadata
     id="metadata15237">
    <rdf:RDF>
      <cc:Work
         rdf:about="">
        <dc:title>logo</dc:title>
      </cc:Work>
    </rdf:RDF>
  </metadata>
</svg>
